<svg width="1483" height="356" viewBox="0 0 1483 356" fill="none" xmlns="http://www.w3.org/2000/svg">
<path d="M705.499 355.187C693.065 352.951 680.892 346.402 672.204 337.357L669.135 334.082L662.319 333.978C633.238 333.459 608.111 313.55 601.712 285.896C598.955 273.784 599.059 260.321 602.076 244.675C602.909 240.36 602.909 239.997 602.076 239.581C601.608 239.269 599.735 237.917 597.966 236.462C589.487 229.704 583.712 219.308 580.955 206.105C577.833 190.719 578.458 173.461 582.776 157.555C585.741 146.535 591.984 133.903 598.122 126.314L600.828 122.987L599.943 119.816C599.423 118.101 598.643 113.943 598.174 110.564C597.446 105.314 597.446 103.598 598.018 98.6081C599.059 89.0956 600.672 83.8455 605.458 74.3329C607.07 71.0581 609.62 66.7957 611.076 64.9244C614.978 59.7262 621.741 53.5925 626.475 50.9934C631.678 48.0825 632.25 47.5627 633.707 44.7037C637.296 37.6863 645.568 31.2926 655.296 28.1218C659.562 26.7183 668.354 25.0549 673.661 24.639C677.666 24.2752 677.822 24.2232 679.643 22.1439C686.094 14.8146 690.932 11.072 698.736 7.17339C708.048 2.49509 716.892 0.519811 728.233 0.519811C739.106 0.519811 746.702 2.07924 754.973 5.97782C761.424 8.99273 765.638 11.9037 770.268 16.582C778.904 25.2628 783.638 35.2951 785.355 48.4983C785.667 51.1494 785.875 94.5016 785.875 173.461C785.823 304.713 785.979 298.735 783.014 308.872C780.257 318.384 775.159 327.117 768.187 334.446C757.471 345.674 745.193 352.224 728.91 355.291C723.655 356.278 711.222 356.226 705.499 355.187ZM729.326 329.872C734.788 327.949 741.968 324.31 745.869 321.451C750.551 318.02 757.262 308.716 759.864 301.958C762.829 294.265 763.037 292.238 763.557 267.703C763.817 255.279 764.182 244.207 764.338 243.063C764.546 241.92 764.442 240.932 764.13 240.724C763.869 240.568 762.881 238.957 761.997 237.19C761.06 235.422 760.124 233.811 759.916 233.655C759.447 233.395 759.916 236.15 760.8 238.489C762.049 242.128 762.517 243.895 762.257 244.155C762.101 244.311 760.644 243.479 759.083 242.284C757.471 241.036 756.014 240.153 755.91 240.309C755.754 240.464 756.326 242.492 757.106 244.779L758.615 249.041L757.679 256.683C756.378 266.923 756.378 266.559 758.251 269.574C759.708 271.861 759.812 272.381 759.343 273.68C758.771 275.24 758.927 275.188 753.205 274.148L751.488 273.836L751.592 284.388C751.644 293.173 751.54 295.46 750.812 297.592C749.771 300.503 748.679 302.01 747.43 302.01C745.609 302.01 738.326 293.589 732.239 284.544C728.858 279.502 728.598 278.93 729.118 277.527C729.69 275.812 732.343 271.861 733.54 270.873C734.008 270.458 734.372 269.522 734.372 268.69V267.183L731.771 269.002C730.366 269.99 728.962 270.821 728.754 270.821C728.493 270.821 727.869 271.289 727.349 271.861C725.268 274.148 725.216 273.213 726.881 260.269C728.181 249.769 729.378 244.987 731.199 242.232C732.811 239.841 737.129 236.41 740.459 234.902C741.707 234.331 742.696 233.655 742.696 233.395C742.696 233.083 741.551 232.875 740.095 232.875C736.973 232.875 736.713 232.043 739.21 230.172C746.754 224.402 757.314 218.321 759.708 218.321C760.228 218.321 761.528 218.061 762.621 217.749L764.546 217.229V211.459C764.546 206.677 764.442 205.793 763.817 206.001C763.401 206.157 759.864 208.652 756.014 211.511C752.112 214.422 748.783 216.761 748.575 216.761C748.314 216.761 748.262 213.798 748.314 210.211C748.522 203.038 747.898 200.803 746.91 205.325C746.598 206.781 746.338 208.6 746.338 209.38C746.338 210.211 746.129 211.043 745.869 211.355C745.609 211.615 745.245 212.759 745.089 213.902C744.933 215.046 744.673 216.969 744.465 218.217C744.1 220.816 743.164 221.024 742.332 218.736C740.355 213.174 739.262 210.523 738.95 210.523C738.482 210.523 738.17 211.615 737.494 215.721C735.517 227.001 736.141 225.494 728.233 238.957L720.846 251.536V262.245L717.204 266.195L714.083 263.492C712.366 261.985 710.961 260.581 710.961 260.321C710.961 260.061 710.597 259.905 710.181 260.009C709.713 260.113 708.516 262.245 707.372 265.103C703.054 275.656 696.291 289.743 693.742 293.433C688.799 300.555 685.158 302.738 683.545 299.359C681.776 295.668 679.019 276.072 678.395 262.712L678.083 255.331L680.32 252.94C681.516 251.588 684.482 249.197 686.823 247.638C690.776 245.039 693.794 242.128 693.794 240.828C693.794 240.568 690.724 241.192 686.927 242.336C679.331 244.519 679.227 244.571 679.227 243.687C679.227 243.012 685.314 232.147 690.516 223.519C702.95 202.986 706.539 199.191 716.424 196.073C720.846 194.721 724.956 193.889 727.349 193.889C728.337 193.889 729.17 193.681 729.17 193.422C729.17 193.214 727.557 192.278 725.58 191.394C723.603 190.511 721.834 189.575 721.678 189.263C721.522 189.003 722.199 188.275 723.187 187.652C724.227 187.028 725.008 186.456 724.904 186.352C724.8 186.3 719.545 186.404 713.251 186.56C705.291 186.82 701.493 187.08 700.973 187.548C700.505 187.912 697.643 191.914 694.574 196.54C691.505 201.115 688.851 204.753 688.747 204.597C688.591 204.442 688.695 202.518 689.008 200.283C689.32 198.048 689.84 193.785 690.152 190.771C690.464 187.756 690.932 183.701 691.245 181.726C691.505 179.751 691.661 178.087 691.557 177.983C691.297 177.723 689.944 180.582 687.291 186.872C684.325 194.045 684.169 194.253 683.285 193.526C682.609 192.954 678.551 192.278 670.071 191.29C667.47 191.03 655.712 190.771 643.903 190.771C632.146 190.771 622.521 190.615 622.521 190.459C622.521 190.303 623.198 189.263 623.978 188.223C627.256 184.065 631.938 176.632 631.73 176.008C631.261 174.864 628.452 174.656 625.539 175.488C621.897 176.58 616.383 180.27 611.753 184.897C609.672 186.924 607.851 188.431 607.695 188.171C607.383 187.652 612.325 180.27 616.123 175.592C624.863 164.832 637.608 156.775 651.915 153.032C661.227 150.589 676.314 149.757 687.135 151.057C707.788 153.552 732.967 161.713 756.274 173.357C763.193 176.84 764.546 177.307 764.546 176.216C764.546 175.8 758.927 171.434 753.777 167.899C751.956 166.651 750.499 165.352 750.499 165.092C750.499 164.78 751.332 163.948 752.32 163.273C753.361 162.597 753.985 161.817 753.777 161.609C753.569 161.401 748.679 159.582 742.956 157.607C722.719 150.537 717.464 148.614 717.048 148.198C716.84 147.99 719.233 145.651 722.407 143C727.661 138.634 728.129 138.062 728.129 136.45C728.129 135.463 727.921 134.631 727.713 134.631C727.349 134.631 718.245 139.361 713.615 141.908L711.742 143L706.8 140.141C704.094 138.53 700.297 136.346 698.372 135.307C696.395 134.215 694.834 133.124 694.834 132.812C694.834 132.552 697.435 130.68 700.557 128.705C703.73 126.782 706.279 125.066 706.279 124.911C706.279 124.547 704.719 121.636 704.511 121.636C704.407 121.636 701.129 123.403 697.279 125.534C693.378 127.666 690.1 129.433 689.996 129.433C689.84 129.433 687.811 130.524 685.47 131.824L681.256 134.215L679.175 132.864C678.083 132.084 677.146 131.304 677.146 131.096C677.146 129.537 685.574 122.831 690.152 120.752C696.499 117.841 707.216 114.514 713.459 113.527C714.655 113.319 715.644 113.007 715.644 112.799C715.644 111.239 709.037 112.071 699.048 114.878C694.938 116.022 691.14 117.217 690.568 117.529C689.528 118.101 687.083 116.49 678.187 109.42C676.314 107.965 671.528 104.222 667.522 101.155C663.516 98.0363 660.187 95.2293 660.082 94.8655C659.718 93.306 669.395 89.5634 675.065 89.0956C676.938 88.9396 678.811 88.6797 679.227 88.5238C680.684 88.0559 678.291 86.9123 674.493 86.2366C669.239 85.3009 660.655 86.3926 651.395 89.2515C649.21 89.9273 646.973 90.1352 643.903 90.0312C641.458 89.9792 639.377 89.8233 639.273 89.6674C638.129 88.5238 646.504 83.4816 654.984 80.2068C666.846 75.6844 673.401 74.5928 688.071 74.6448C698.372 74.6448 700.349 74.8008 704.459 75.7884C714.031 78.1795 717.881 79.739 723.447 83.4816C737.441 92.8382 751.436 115.19 762.933 146.587L763.974 149.446V140.869C763.974 133.072 763.869 132.084 762.829 130.109C757.367 119.712 757.21 119.297 758.563 118.309C759.187 117.841 758.043 116.23 751.592 108.692C747.326 103.754 743.944 99.3878 744.048 99.0759C744.205 98.7121 745.349 97.9843 746.65 97.4645C747.95 96.9447 749.199 96.113 749.511 95.5932C750.187 94.3456 749.511 92.8902 748.47 93.306C747.638 93.6179 742.904 94.6056 742.176 94.6056C741.499 94.6056 735.361 84.1054 735.621 83.4296C735.725 83.0658 736.661 82.5979 737.598 82.39C741.135 81.6623 741.239 81.6103 740.875 80.1548C740.667 79.3751 740.459 78.6993 740.407 78.6474C740.355 78.5954 738.898 78.8553 737.233 79.2192C735.517 79.635 732.863 80.1028 731.355 80.2588C728.806 80.5707 728.598 80.5187 728.077 79.3231C727.297 77.6077 727.713 76.6721 729.794 75.5805C732.863 74.021 739.366 74.073 745.297 75.6844C746.494 76.0483 746.546 75.9963 745.869 75.2166C745.037 74.177 741.083 72.9814 736.869 72.5136L733.904 72.2017L728.441 60.9738C725.424 54.84 722.927 49.5899 722.927 49.382C722.927 49.1741 723.239 48.8622 723.603 48.7063C724.488 48.3424 729.378 49.1741 730.73 49.9018C732.811 50.9934 732.603 49.7979 730.366 47.8226C728.077 45.7953 723.759 44.028 719.805 43.4562C718.505 43.2483 716.528 42.4685 715.436 41.7408C713.511 40.4932 713.459 40.3373 714.291 39.7135C716.684 37.9982 725.892 38.1541 730.991 40.0774C738.326 42.7804 747.378 50.3177 751.54 57.1272C754.401 61.8575 757.783 70.6943 759.343 77.4518C761.684 87.5881 763.453 98.1922 763.557 102.611L763.609 105.262L764.13 102.403C764.39 100.791 764.494 89.6154 764.39 77.1919L764.234 54.84L762.777 50.1617C760.54 42.7804 757.627 37.7902 752.84 32.956C746.39 26.4584 739.731 23.7554 730.21 23.7034C725.268 23.6514 723.187 24.1192 718.765 26.0945C713.042 28.6936 703.418 35.9189 703.834 37.3744C705.083 41.4809 706.8 48.5503 707.112 50.5776L707.424 53.0207L704.771 51.2533C700.557 48.3944 694.886 46.627 685.73 45.2235C682.088 44.6517 676.21 44.5998 673.296 45.1196L671.268 45.4834L675.117 46.627C679.123 47.8226 684.065 50.5776 687.187 53.3326C689.008 54.996 693.794 60.6099 693.794 61.1817C693.794 61.3377 693.013 61.2857 692.077 61.1297C683.181 59.4664 668.406 59.8822 659.822 62.0654C639.533 67.2115 626.683 82.5979 623.822 105.262C623.614 106.717 623.354 108.381 623.198 109.004C622.782 110.72 624.342 110.876 633.238 109.94C641.926 109.004 648.169 109.212 664.14 111.032C671.684 111.863 673.505 112.383 671.372 113.059C669.343 113.683 650.51 122.104 648.273 123.403C624.03 137.282 620.805 139.569 615.758 147.054C604.886 163.273 600.463 182.506 604.001 198.048C604.729 201.063 605.614 204.338 606.082 205.377L606.862 207.301L611.544 206.313C628.088 202.934 649.73 202.518 662.319 205.325C667.782 206.521 671.424 207.612 671.424 207.924C671.424 208.132 670.799 208.496 670.019 208.704C664.869 209.952 647.389 217.749 641.666 221.283C636.516 224.454 631.365 229.912 628.92 234.695C621.741 248.729 620.441 268.066 625.695 283.193C627.256 287.663 630.169 293.069 632.562 296.032L633.863 297.54L635.787 293.693C641.25 282.881 648.533 272.277 654.984 265.883C659.146 261.777 662.944 258.346 663.36 258.346C663.412 258.346 663.62 261.465 663.828 265.259C664.504 277.891 666.585 290.106 669.655 299.307C671.476 304.765 672.984 307.624 676.314 312.042C681.308 318.592 686.562 323.062 693.221 326.389C701.025 330.288 706.539 331.535 716.684 331.587C723.967 331.639 724.384 331.587 729.326 329.872Z" fill="url(#paint0_linear_658_57)"/>
<path d="M885.501 354.667C897.935 352.432 910.108 345.882 918.796 336.837L921.865 333.563L928.681 333.459C957.762 332.939 982.889 313.03 989.288 285.376C992.045 273.265 991.941 259.801 988.924 244.155C988.091 239.841 988.091 239.477 988.924 239.061C989.392 238.749 991.265 237.398 993.034 235.942C1001.51 229.185 1007.29 218.788 1010.05 205.585C1013.17 190.199 1012.54 172.941 1008.22 157.035C1005.26 146.015 999.016 133.383 992.878 125.794L990.172 122.467L991.057 119.297C991.577 117.581 992.357 113.423 992.826 110.044C993.554 104.794 993.554 103.078 992.982 98.0883C991.941 88.5758 990.328 83.3257 985.542 73.8131C983.93 70.5383 981.38 66.2759 979.924 64.4045C976.022 59.2064 969.259 53.0727 964.525 50.4736C959.322 47.5627 958.75 47.0429 957.294 44.1839C953.704 37.1665 945.432 30.7728 935.704 27.602C931.438 26.1985 922.646 24.5351 917.339 24.1192C913.334 23.7553 913.178 23.7034 911.357 21.6241C904.906 14.2948 900.068 10.5522 892.264 6.65358C882.952 1.97528 874.108 0 862.767 0C851.894 0 844.298 1.55943 836.027 5.45801C829.576 8.47291 825.362 11.3839 820.732 16.0621C812.096 24.743 807.362 34.7753 805.645 47.9785C805.333 50.6296 805.125 93.9818 805.125 172.941C805.177 304.193 805.021 298.215 807.986 308.352C810.743 317.864 815.841 326.597 822.813 333.926C833.529 345.154 845.807 351.704 862.09 354.771C867.345 355.758 879.778 355.706 885.501 354.667ZM861.674 329.352C856.212 327.429 849.033 323.79 845.131 320.931C840.449 317.5 833.738 308.196 831.136 301.438C828.171 293.745 827.963 291.718 827.443 267.183C827.183 254.759 826.818 243.687 826.662 242.544C826.454 241.4 826.558 240.412 826.87 240.205C827.131 240.049 828.119 238.437 829.003 236.67C829.94 234.902 830.876 233.291 831.084 233.135C831.553 232.875 831.084 235.63 830.2 237.969C828.951 241.608 828.483 243.375 828.743 243.635C828.899 243.791 830.356 242.96 831.917 241.764C833.529 240.516 834.986 239.633 835.09 239.789C835.246 239.945 834.674 241.972 833.894 244.259L832.385 248.521L833.321 256.163C834.622 266.403 834.622 266.039 832.749 269.054C831.292 271.341 831.188 271.861 831.657 273.161C832.229 274.72 832.073 274.668 837.795 273.628L839.512 273.316L839.408 283.869C839.356 292.653 839.46 294.941 840.188 297.072C841.229 299.983 842.321 301.49 843.57 301.49C845.391 301.49 852.674 293.069 858.761 284.025C862.142 278.982 862.403 278.411 861.882 277.007C861.31 275.292 858.657 271.341 857.46 270.354C856.992 269.938 856.628 269.002 856.628 268.17V266.663L859.229 268.482C860.634 269.47 862.038 270.302 862.246 270.302C862.507 270.302 863.131 270.769 863.651 271.341C865.732 273.628 865.784 272.693 864.119 259.749C862.819 249.249 861.622 244.467 859.801 241.712C858.189 239.321 853.871 235.89 850.541 234.383C849.293 233.811 848.304 233.135 848.304 232.875C848.304 232.563 849.449 232.355 850.905 232.355C854.027 232.355 854.287 231.524 851.79 229.652C844.246 223.882 833.686 217.801 831.292 217.801C830.772 217.801 829.472 217.541 828.379 217.229L826.454 216.709V210.939C826.454 206.157 826.558 205.273 827.183 205.481C827.599 205.637 831.136 208.132 834.986 210.991C838.888 213.902 842.217 216.241 842.425 216.241C842.686 216.241 842.738 213.278 842.686 209.692C842.478 202.518 843.102 200.283 844.09 204.805C844.402 206.261 844.662 208.08 844.662 208.86C844.662 209.692 844.871 210.523 845.131 210.835C845.391 211.095 845.755 212.239 845.911 213.382C846.067 214.526 846.327 216.449 846.535 217.697C846.9 220.296 847.836 220.504 848.668 218.217C850.645 212.655 851.738 210.004 852.05 210.004C852.518 210.004 852.83 211.095 853.507 215.202C855.483 226.482 854.859 224.974 862.767 238.437L870.154 251.017V261.725L873.796 265.675L876.917 262.972C878.634 261.465 880.039 260.061 880.039 259.801C880.039 259.541 880.403 259.386 880.819 259.49C881.287 259.593 882.484 261.725 883.628 264.584C887.946 275.136 894.709 289.223 897.258 292.913C902.201 300.035 905.842 302.218 907.455 298.839C909.224 295.149 911.981 275.552 912.605 262.193L912.917 254.811L910.68 252.42C909.484 251.069 906.518 248.677 904.177 247.118C900.224 244.519 897.206 241.608 897.206 240.309C897.206 240.049 900.276 240.672 904.073 241.816C911.669 243.999 911.773 244.051 911.773 243.167C911.773 242.492 905.686 231.628 900.484 222.999C888.05 202.466 884.461 198.672 874.576 195.553C870.154 194.201 866.044 193.37 863.651 193.37C862.663 193.37 861.83 193.162 861.83 192.902C861.83 192.694 863.443 191.758 865.42 190.875C867.397 189.991 869.166 189.055 869.322 188.743C869.478 188.483 868.801 187.756 867.813 187.132C866.773 186.508 865.992 185.936 866.096 185.832C866.2 185.78 871.455 185.884 877.749 186.04C885.709 186.3 889.507 186.56 890.027 187.028C890.495 187.392 893.357 191.394 896.426 196.021C899.495 200.595 902.149 204.234 902.253 204.078C902.409 203.922 902.305 201.998 901.992 199.763C901.68 197.528 901.16 193.266 900.848 190.251C900.536 187.236 900.068 183.181 899.755 181.206C899.495 179.231 899.339 177.567 899.443 177.463C899.703 177.203 901.056 180.062 903.709 186.352C906.675 193.526 906.831 193.733 907.715 193.006C908.391 192.434 912.449 191.758 920.929 190.771C923.53 190.511 935.288 190.251 947.097 190.251C958.854 190.251 968.479 190.095 968.479 189.939C968.479 189.783 967.802 188.743 967.022 187.704C963.744 183.545 959.062 176.112 959.27 175.488C959.739 174.345 962.548 174.137 965.461 174.968C969.103 176.06 974.617 179.751 979.247 184.377C981.328 186.404 983.149 187.912 983.305 187.652C983.617 187.132 978.675 179.751 974.877 175.072C966.137 164.312 953.392 156.255 939.085 152.512C929.773 150.069 914.686 149.238 903.865 150.537C883.212 153.032 858.033 161.193 834.726 172.837C827.807 176.32 826.454 176.788 826.454 175.696C826.454 175.28 832.073 170.914 837.223 167.379C839.044 166.132 840.501 164.832 840.501 164.572C840.501 164.26 839.668 163.428 838.68 162.753C837.639 162.077 837.015 161.297 837.223 161.089C837.431 160.881 842.321 159.062 848.044 157.087C868.281 150.017 873.536 148.094 873.952 147.678C874.16 147.47 871.767 145.131 868.593 142.48C863.339 138.114 862.871 137.542 862.871 135.931C862.871 134.943 863.079 134.111 863.287 134.111C863.651 134.111 872.755 138.841 877.385 141.389L879.258 142.48L884.2 139.621C886.906 138.01 890.703 135.827 892.628 134.787C894.605 133.695 896.166 132.604 896.166 132.292C896.166 132.032 893.565 130.161 890.443 128.185C887.27 126.262 884.721 124.547 884.721 124.391C884.721 124.027 886.281 121.116 886.489 121.116C886.593 121.116 889.871 122.883 893.721 125.014C897.622 127.146 900.9 128.913 901.004 128.913C901.16 128.913 903.189 130.005 905.53 131.304L909.744 133.695L911.825 132.344C912.917 131.564 913.854 130.784 913.854 130.576C913.854 129.017 905.426 122.311 900.848 120.232C894.501 117.321 883.784 113.994 877.541 113.007C876.345 112.799 875.356 112.487 875.356 112.279C875.356 110.72 881.963 111.551 891.952 114.358C896.062 115.502 899.86 116.698 900.432 117.009C901.472 117.581 903.917 115.97 912.813 108.9C914.686 107.445 919.472 103.702 923.478 100.635C927.484 97.5165 930.813 94.7095 930.918 94.3456C931.282 92.7862 921.605 89.0436 915.935 88.5757C914.062 88.4198 912.189 88.1599 911.773 88.004C910.316 87.5361 912.709 86.3925 916.507 85.7168C921.761 84.7811 930.345 85.8727 939.605 88.7317C941.79 89.4075 944.027 89.6154 947.097 89.5114C949.542 89.4594 951.623 89.3035 951.727 89.1475C952.872 88.004 944.496 82.9618 936.016 79.687C924.155 75.1646 917.6 74.073 902.929 74.125C892.628 74.125 890.651 74.2809 886.541 75.2686C876.969 77.6597 873.119 79.2192 867.553 82.9618C853.559 92.3184 839.564 114.67 828.067 146.067L827.026 148.926V140.349C827.026 132.552 827.131 131.564 828.171 129.589C833.633 119.193 833.79 118.777 832.437 117.789C831.813 117.321 832.957 115.71 839.408 108.173C843.674 103.234 847.056 98.868 846.952 98.5561C846.795 98.1923 845.651 97.4645 844.35 96.9447C843.05 96.4249 841.801 95.5932 841.489 95.0734C840.813 93.8258 841.489 92.3704 842.53 92.7862C843.362 93.0981 848.096 94.0857 848.824 94.0857C849.501 94.0857 855.639 83.5856 855.379 82.9098C855.275 82.5459 854.339 82.0781 853.402 81.8702C849.865 81.1425 849.761 81.0905 850.125 79.635C850.333 78.8553 850.541 78.1795 850.593 78.1275C850.645 78.0756 852.102 78.3355 853.767 78.6993C855.483 79.1152 858.137 79.583 859.645 79.739C862.194 80.0508 862.403 79.9989 862.923 78.8033C863.703 77.0879 863.287 76.1523 861.206 75.0607C858.137 73.5012 851.634 73.5532 845.703 75.1646C844.506 75.5285 844.454 75.4765 845.131 74.6968C845.963 73.6572 849.917 72.4616 854.131 71.9938L857.096 71.6819L862.559 60.454C865.576 54.3202 868.073 49.0701 868.073 48.8622C868.073 48.6543 867.761 48.3424 867.397 48.1865C866.512 47.8226 861.622 48.6543 860.27 49.382C858.189 50.4736 858.397 49.2781 860.634 47.3028C862.923 45.2755 867.241 43.5082 871.195 42.9364C872.495 42.7284 874.472 41.9487 875.564 41.221C877.489 39.9734 877.541 39.8175 876.709 39.1937C874.316 37.4784 865.108 37.6343 860.009 39.5576C852.674 42.2606 843.622 49.7979 839.46 56.6074C836.599 61.3377 833.217 70.1745 831.657 76.932C829.316 87.0683 827.547 97.6724 827.443 102.091L827.391 104.742L826.87 101.883C826.61 100.271 826.506 89.0956 826.61 76.6721L826.766 54.3202L828.223 49.6419C830.46 42.2606 833.373 37.2704 838.16 32.4362C844.61 25.9386 851.269 23.2355 860.79 23.1836C865.732 23.1316 867.813 23.5994 872.235 25.5747C877.958 28.1737 887.582 35.3991 887.166 36.8546C885.917 40.9611 884.2 48.0305 883.888 50.0578L883.576 52.5009L886.229 50.7335C890.443 47.8746 896.114 46.1072 905.27 44.7037C908.912 44.1319 914.79 44.0799 917.704 44.5998L919.732 44.9636L915.883 46.1072C911.877 47.3028 906.935 50.0578 903.813 52.8128C901.992 54.4762 897.206 60.0901 897.206 60.6619C897.206 60.8179 897.987 60.7659 898.923 60.6099C907.819 58.9465 922.594 59.3624 931.178 61.5456C951.467 66.6917 964.317 82.0781 967.178 104.742C967.386 106.197 967.646 107.861 967.802 108.485C968.218 110.2 966.658 110.356 957.762 109.42C949.074 108.484 942.831 108.692 926.86 110.512C919.316 111.343 917.495 111.863 919.628 112.539C921.657 113.163 940.49 121.584 942.727 122.883C966.97 136.762 970.195 139.049 975.242 146.535C986.115 162.753 990.537 181.986 986.999 197.528C986.271 200.543 985.386 203.818 984.918 204.857L984.138 206.781L979.456 205.793C962.912 202.414 941.27 201.998 928.681 204.805C923.218 206.001 919.576 207.093 919.576 207.404C919.576 207.612 920.201 207.976 920.981 208.184C926.131 209.432 943.611 217.229 949.334 220.764C954.484 223.934 959.635 229.392 962.08 234.175C969.259 248.21 970.559 267.547 965.305 282.673C963.744 287.143 960.831 292.549 958.438 295.512L957.137 297.02L955.213 293.173C949.75 282.361 942.467 271.757 936.016 265.363C931.854 261.257 928.056 257.826 927.64 257.826C927.588 257.826 927.38 260.945 927.172 264.74C926.496 277.371 924.415 289.587 921.345 298.787C919.524 304.245 918.016 307.104 914.686 311.523C909.692 318.072 904.438 322.543 897.779 325.869C889.975 329.768 884.461 331.015 874.316 331.067C867.033 331.119 866.616 331.067 861.674 329.352Z" fill="url(#paint1_linear_658_57)"/>
<path d="M0.851562 105.545H49.9993L83.8061 187.932H85.5107L119.317 105.545H168.465V251H129.829V166.909H128.692L96.3061 249.864H73.0107L40.6243 166.341H39.4879V251H0.851562V105.545Z" fill="white"/>
<path d="M224.964 251H182.35L230.362 105.545H284.339L332.35 251H289.737L257.918 145.602H256.782L224.964 251ZM217.009 193.614H297.123V223.159H217.009V193.614Z" fill="white"/>
<path d="M432.439 105.545H471.928V198.727C471.928 209.807 469.276 219.395 463.973 227.491C458.717 235.541 451.378 241.767 441.956 246.17C432.534 250.527 421.596 252.705 409.143 252.705C396.596 252.705 385.611 250.527 376.189 246.17C366.767 241.767 359.428 235.541 354.172 227.491C348.964 219.395 346.359 209.807 346.359 198.727V105.545H385.848V195.318C385.848 199.816 386.842 203.841 388.831 207.392C390.82 210.896 393.566 213.642 397.07 215.631C400.621 217.619 404.645 218.614 409.143 218.614C413.689 218.614 417.714 217.619 421.217 215.631C424.721 213.642 427.467 210.896 429.456 207.392C431.445 203.841 432.439 199.816 432.439 195.318V105.545Z" fill="white"/>
<path d="M530.184 105.545V251H490.695V105.545H530.184Z" fill="white"/>
<path d="M1116.46 251H1060.49V105.545H1115.89C1130.85 105.545 1143.78 108.457 1154.67 114.281C1165.61 120.058 1174.03 128.391 1179.95 139.281C1185.92 150.124 1188.9 163.121 1188.9 178.273C1188.9 193.424 1185.94 206.445 1180.02 217.335C1174.1 228.178 1165.72 236.511 1154.88 242.335C1144.04 248.112 1131.23 251 1116.46 251ZM1099.98 217.477H1115.04C1122.23 217.477 1128.37 216.317 1133.43 213.997C1138.55 211.677 1142.43 207.676 1145.08 201.994C1147.78 196.312 1149.13 188.405 1149.13 178.273C1149.13 168.14 1147.76 160.233 1145.01 154.551C1142.31 148.869 1138.33 144.868 1133.08 142.548C1127.87 140.228 1121.48 139.068 1113.9 139.068H1099.98V217.477Z" fill="white"/>
<path d="M1235.78 251H1193.16L1241.17 105.545H1295.15L1343.16 251H1300.55L1268.73 145.602H1267.59L1235.78 251ZM1227.82 193.614H1307.94V223.159H1227.82V193.614Z" fill="white"/>
<path d="M1336.36 105.545H1380.4L1408.81 164.636H1409.94L1438.35 105.545H1482.39L1428.98 205.261V251H1389.77V205.261L1336.36 105.545Z" fill="white"/>
<defs>
<linearGradient id="paint0_linear_658_57" x1="329.546" y1="1.89561e-06" x2="368.324" y2="392.848" gradientUnits="userSpaceOnUse">
<stop stop-color="#E368CD"/>
<stop offset="1" stop-color="#AF7BDE"/>
</linearGradient>
<linearGradient id="paint1_linear_658_57" x1="329.546" y1="1.89561e-06" x2="368.324" y2="392.848" gradientUnits="userSpaceOnUse">
<stop stop-color="#E368CD"/>
<stop offset="1" stop-color="#AF7BDE"/>
</linearGradient>
</defs>
</svg>
