<svg width="433" height="356" viewBox="0 0 433 356" fill="none" xmlns="http://www.w3.org/2000/svg">
<path d="M126.499 355.187C114.065 352.951 101.892 346.402 93.204 337.357L90.1346 334.082L83.3195 333.978C54.2383 333.459 29.1109 313.55 22.712 285.896C19.9548 273.784 20.0589 260.321 23.0762 244.675C23.9086 240.36 23.9086 239.997 23.0762 239.581C22.608 239.269 20.7352 237.917 18.9664 236.462C10.4865 229.704 4.7119 219.308 1.95465 206.105C-1.16676 190.719 -0.542444 173.461 3.77551 157.555C6.74085 146.535 12.9837 133.903 19.1224 126.314L21.8276 122.987L20.9432 119.816C20.423 118.101 19.6426 113.943 19.1744 110.564C18.4461 105.314 18.4461 103.598 19.0184 98.6081C20.0588 89.0956 21.6716 83.8455 26.4578 74.3329C28.0705 71.0581 30.6196 66.7957 32.0763 64.9244C35.9781 59.7262 42.7411 53.5925 47.4753 50.9934C52.6776 48.0825 53.2499 47.5627 54.7065 44.7037C58.2962 37.6863 66.5679 31.2926 76.2963 28.1218C80.5623 26.7183 89.3542 25.0549 94.6606 24.639C98.6665 24.2752 98.8225 24.2232 100.643 22.1439C107.094 14.8146 111.932 11.072 119.736 7.17339C129.048 2.49509 137.892 0.519811 149.233 0.519811C160.106 0.519811 167.702 2.07924 175.973 5.97782C182.424 8.99273 186.638 11.9037 191.268 16.582C199.904 25.2628 204.638 35.2951 206.355 48.4983C206.667 51.1494 206.875 94.5016 206.875 173.461C206.823 304.713 206.979 298.735 204.014 308.872C201.257 318.384 196.159 327.117 189.187 334.446C178.471 345.674 166.193 352.224 149.91 355.291C144.655 356.278 132.222 356.226 126.499 355.187ZM150.326 329.872C155.788 327.949 162.968 324.31 166.869 321.451C171.551 318.02 178.262 308.716 180.864 301.958C183.829 294.265 184.037 292.238 184.557 267.703C184.817 255.279 185.182 244.207 185.338 243.063C185.546 241.92 185.442 240.932 185.13 240.724C184.869 240.568 183.881 238.957 182.997 237.19C182.06 235.422 181.124 233.811 180.916 233.655C180.447 233.395 180.916 236.15 181.8 238.489C183.049 242.128 183.517 243.895 183.257 244.155C183.101 244.311 181.644 243.479 180.083 242.284C178.471 241.036 177.014 240.153 176.91 240.309C176.754 240.464 177.326 242.492 178.106 244.779L179.615 249.041L178.679 256.683C177.378 266.923 177.378 266.559 179.251 269.574C180.708 271.861 180.812 272.381 180.343 273.68C179.771 275.24 179.927 275.188 174.205 274.148L172.488 273.836L172.592 284.388C172.644 293.173 172.54 295.46 171.812 297.592C170.771 300.503 169.679 302.01 168.43 302.01C166.609 302.01 159.326 293.589 153.239 284.544C149.858 279.502 149.598 278.93 150.118 277.527C150.69 275.812 153.343 271.861 154.54 270.873C155.008 270.458 155.372 269.522 155.372 268.69V267.183L152.771 269.002C151.366 269.99 149.962 270.821 149.754 270.821C149.493 270.821 148.869 271.289 148.349 271.861C146.268 274.148 146.216 273.213 147.881 260.269C149.181 249.769 150.378 244.987 152.199 242.232C153.811 239.841 158.129 236.41 161.459 234.902C162.707 234.331 163.696 233.655 163.696 233.395C163.696 233.083 162.551 232.875 161.095 232.875C157.973 232.875 157.713 232.043 160.21 230.172C167.754 224.402 178.314 218.321 180.708 218.321C181.228 218.321 182.528 218.061 183.621 217.749L185.546 217.229V211.459C185.546 206.677 185.442 205.793 184.817 206.001C184.401 206.157 180.864 208.652 177.014 211.511C173.112 214.422 169.783 216.761 169.575 216.761C169.314 216.761 169.262 213.798 169.314 210.211C169.522 203.038 168.898 200.803 167.91 205.325C167.598 206.781 167.338 208.6 167.338 209.38C167.338 210.211 167.129 211.043 166.869 211.355C166.609 211.615 166.245 212.759 166.089 213.902C165.933 215.046 165.673 216.969 165.465 218.217C165.1 220.816 164.164 221.024 163.332 218.736C161.355 213.174 160.262 210.523 159.95 210.523C159.482 210.523 159.17 211.615 158.494 215.721C156.517 227.001 157.141 225.494 149.233 238.957L141.846 251.536V262.245L138.204 266.195L135.083 263.492C133.366 261.985 131.961 260.581 131.961 260.321C131.961 260.061 131.597 259.905 131.181 260.009C130.713 260.113 129.516 262.245 128.372 265.103C124.054 275.656 117.291 289.743 114.742 293.433C109.799 300.555 106.158 302.738 104.545 299.359C102.776 295.668 100.019 276.072 99.3948 262.712L99.0826 255.331L101.32 252.94C102.516 251.588 105.482 249.197 107.823 247.638C111.776 245.039 114.794 242.128 114.794 240.828C114.794 240.568 111.724 241.192 107.927 242.336C100.331 244.519 100.227 244.571 100.227 243.687C100.227 243.012 106.314 232.147 111.516 223.519C123.95 202.986 127.539 199.191 137.424 196.073C141.846 194.721 145.956 193.889 148.349 193.889C149.337 193.889 150.17 193.681 150.17 193.422C150.17 193.214 148.557 192.278 146.58 191.394C144.603 190.511 142.834 189.575 142.678 189.263C142.522 189.003 143.199 188.275 144.187 187.652C145.227 187.028 146.008 186.456 145.904 186.352C145.8 186.3 140.545 186.404 134.251 186.56C126.291 186.82 122.493 187.08 121.973 187.548C121.505 187.912 118.643 191.914 115.574 196.54C112.505 201.115 109.851 204.753 109.747 204.597C109.591 204.442 109.695 202.518 110.008 200.283C110.32 198.048 110.84 193.785 111.152 190.771C111.464 187.756 111.932 183.701 112.245 181.726C112.505 179.751 112.661 178.087 112.557 177.983C112.297 177.723 110.944 180.582 108.291 186.872C105.325 194.045 105.169 194.253 104.285 193.526C103.609 192.954 99.5508 192.278 91.071 191.29C88.4698 191.03 76.7125 190.771 64.9031 190.771C53.1458 190.771 43.5215 190.615 43.5215 190.459C43.5215 190.303 44.1978 189.263 44.9781 188.223C48.2556 184.065 52.9378 176.632 52.7297 176.008C52.2615 174.864 49.4521 174.656 46.5388 175.488C42.8972 176.58 37.3827 180.27 32.7526 184.897C30.6717 186.924 28.8508 188.431 28.6948 188.171C28.3826 187.652 33.3248 180.27 37.1226 175.592C45.8625 164.832 58.6083 156.775 72.9148 153.032C82.227 150.589 97.3138 149.757 108.135 151.057C128.788 153.552 153.967 161.713 177.274 173.357C184.193 176.84 185.546 177.307 185.546 176.216C185.546 175.8 179.927 171.434 174.777 167.899C172.956 166.651 171.499 165.352 171.499 165.092C171.499 164.78 172.332 163.948 173.32 163.273C174.361 162.597 174.985 161.817 174.777 161.609C174.569 161.401 169.679 159.582 163.956 157.607C143.719 150.537 138.464 148.614 138.048 148.198C137.84 147.99 140.233 145.651 143.407 143C148.661 138.634 149.129 138.062 149.129 136.45C149.129 135.463 148.921 134.631 148.713 134.631C148.349 134.631 139.245 139.361 134.615 141.908L132.742 143L127.8 140.141C125.094 138.53 121.297 136.346 119.372 135.307C117.395 134.215 115.834 133.124 115.834 132.812C115.834 132.552 118.435 130.68 121.557 128.705C124.73 126.782 127.279 125.066 127.279 124.911C127.279 124.547 125.719 121.636 125.511 121.636C125.407 121.636 122.129 123.403 118.279 125.534C114.378 127.666 111.1 129.433 110.996 129.433C110.84 129.433 108.811 130.524 106.47 131.824L102.256 134.215L100.175 132.864C99.0826 132.084 98.1462 131.304 98.1462 131.096C98.1462 129.537 106.574 122.831 111.152 120.752C117.499 117.841 128.216 114.514 134.459 113.527C135.655 113.319 136.644 113.007 136.644 112.799C136.644 111.239 130.037 112.071 120.048 114.878C115.938 116.022 112.14 117.217 111.568 117.529C110.528 118.101 108.083 116.49 99.1866 109.42C97.3138 107.965 92.5277 104.222 88.5219 101.155C84.516 98.0363 81.1865 95.2293 81.0825 94.8655C80.7183 93.306 90.3947 89.5634 96.0652 89.0956C97.9381 88.9396 99.8109 88.6797 100.227 88.5238C101.684 88.0559 99.2907 86.9123 95.493 86.2366C90.2386 85.3009 81.6547 86.3926 72.3945 89.2515C70.2095 89.9273 67.9725 90.1352 64.9031 90.0312C62.458 89.9792 60.3771 89.8233 60.2731 89.6674C59.1285 88.5238 67.5044 83.4816 75.9842 80.2068C87.8456 75.6844 94.4005 74.5928 109.071 74.6448C119.372 74.6448 121.349 74.8008 125.459 75.7884C135.031 78.1795 138.881 79.739 144.447 83.4816C158.441 92.8382 172.436 115.19 183.933 146.587L184.974 149.446V140.869C184.974 133.072 184.869 132.084 183.829 130.109C178.367 119.712 178.21 119.297 179.563 118.309C180.187 117.841 179.043 116.23 172.592 108.692C168.326 103.754 164.944 99.3878 165.048 99.0759C165.205 98.7121 166.349 97.9843 167.65 97.4645C168.95 96.9447 170.199 96.113 170.511 95.5932C171.187 94.3456 170.511 92.8902 169.47 93.306C168.638 93.6179 163.904 94.6056 163.176 94.6056C162.499 94.6056 156.361 84.1054 156.621 83.4296C156.725 83.0658 157.661 82.5979 158.598 82.39C162.135 81.6623 162.239 81.6103 161.875 80.1548C161.667 79.3751 161.459 78.6993 161.407 78.6474C161.355 78.5954 159.898 78.8553 158.233 79.2192C156.517 79.635 153.863 80.1028 152.355 80.2588C149.806 80.5707 149.598 80.5187 149.077 79.3231C148.297 77.6077 148.713 76.6721 150.794 75.5805C153.863 74.021 160.366 74.073 166.297 75.6844C167.494 76.0483 167.546 75.9963 166.869 75.2166C166.037 74.177 162.083 72.9814 157.869 72.5136L154.904 72.2017L149.441 60.9738C146.424 54.84 143.927 49.5899 143.927 49.382C143.927 49.1741 144.239 48.8622 144.603 48.7063C145.488 48.3424 150.378 49.1741 151.73 49.9018C153.811 50.9934 153.603 49.7979 151.366 47.8226C149.077 45.7953 144.759 44.028 140.805 43.4562C139.505 43.2483 137.528 42.4685 136.436 41.7408C134.511 40.4932 134.459 40.3373 135.291 39.7135C137.684 37.9982 146.892 38.1541 151.991 40.0774C159.326 42.7804 168.378 50.3177 172.54 57.1272C175.401 61.8575 178.783 70.6943 180.343 77.4518C182.684 87.5881 184.453 98.1922 184.557 102.611L184.609 105.262L185.13 102.403C185.39 100.791 185.494 89.6154 185.39 77.1919L185.234 54.84L183.777 50.1617C181.54 42.7804 178.627 37.7902 173.84 32.956C167.39 26.4584 160.731 23.7554 151.21 23.7034C146.268 23.6514 144.187 24.1192 139.765 26.0945C134.042 28.6936 124.418 35.9189 124.834 37.3744C126.083 41.4809 127.8 48.5503 128.112 50.5776L128.424 53.0207L125.771 51.2533C121.557 48.3944 115.886 46.627 106.73 45.2235C103.088 44.6517 97.2098 44.5998 94.2964 45.1196L92.2675 45.4834L96.1173 46.627C100.123 47.8226 105.065 50.5776 108.187 53.3326C110.008 54.996 114.794 60.6099 114.794 61.1817C114.794 61.3377 114.013 61.2857 113.077 61.1297C104.181 59.4664 89.4063 59.8822 80.8224 62.0654C60.5332 67.2115 47.6834 82.5979 44.8221 105.262C44.614 106.717 44.3538 108.381 44.1978 109.004C43.7816 110.72 45.3423 110.876 54.2383 109.94C62.9263 109.004 69.1691 109.212 85.1403 111.032C92.6837 111.863 94.5045 112.383 92.3716 113.059C90.3427 113.683 71.5101 122.104 69.2731 123.403C45.0302 137.282 41.8047 139.569 36.7584 147.054C25.8855 163.273 21.4635 182.506 25.0011 198.048C25.7294 201.063 26.6138 204.338 27.082 205.377L27.8624 207.301L32.5445 206.313C49.088 202.934 70.7298 202.518 83.3195 205.325C88.7819 206.521 92.4236 207.612 92.4236 207.924C92.4236 208.132 91.7993 208.496 91.019 208.704C85.8687 209.952 68.3887 217.749 62.6661 221.283C57.5158 224.454 52.3655 229.912 49.9203 234.695C42.7411 248.729 41.4405 268.066 46.6949 283.193C48.2556 287.663 51.1689 293.069 53.562 296.032L54.8626 297.54L56.7875 293.693C62.2499 282.881 69.5333 272.277 75.9842 265.883C80.1461 261.777 83.9438 258.346 84.36 258.346C84.412 258.346 84.6201 261.465 84.8282 265.259C85.5045 277.891 87.5854 290.106 90.6548 299.307C92.4756 304.765 93.9843 307.624 97.3138 312.042C102.308 318.592 107.562 323.062 114.221 326.389C122.025 330.288 127.539 331.535 137.684 331.587C144.967 331.639 145.384 331.587 150.326 329.872Z" fill="url(#paint0_linear_658_58)"/>
<path d="M306.501 354.667C318.935 352.432 331.108 345.882 339.796 336.837L342.865 333.563L349.681 333.459C378.762 332.939 403.889 313.03 410.288 285.376C413.045 273.265 412.941 259.801 409.924 244.155C409.091 239.841 409.091 239.477 409.924 239.061C410.392 238.749 412.265 237.398 414.034 235.942C422.513 229.185 428.288 218.788 431.045 205.585C434.167 190.199 433.543 172.941 429.225 157.035C426.259 146.015 420.016 133.383 413.878 125.794L411.172 122.467L412.057 119.297C412.577 117.581 413.357 113.423 413.826 110.044C414.554 104.794 414.554 103.078 413.982 98.0883C412.941 88.5758 411.328 83.3257 406.542 73.8131C404.93 70.5383 402.38 66.2759 400.924 64.4045C397.022 59.2064 390.259 53.0727 385.525 50.4736C380.322 47.5627 379.75 47.0429 378.294 44.1839C374.704 37.1665 366.432 30.7728 356.704 27.602C352.438 26.1985 343.646 24.5351 338.339 24.1192C334.334 23.7553 334.178 23.7034 332.357 21.6241C325.906 14.2948 321.068 10.5522 313.264 6.65358C303.952 1.97528 295.108 0 283.767 0C272.894 0 265.298 1.55943 257.027 5.45801C250.576 8.47291 246.362 11.3839 241.732 16.0621C233.096 24.743 228.362 34.7753 226.645 47.9785C226.333 50.6296 226.125 93.9818 226.125 172.941C226.177 304.193 226.021 298.215 228.986 308.352C231.743 317.864 236.841 326.597 243.813 333.926C254.529 345.154 266.807 351.704 283.09 354.771C288.345 355.758 300.778 355.706 306.501 354.667ZM282.674 329.352C277.212 327.429 270.033 323.79 266.131 320.931C261.449 317.5 254.738 308.196 252.136 301.438C249.171 293.745 248.963 291.718 248.443 267.183C248.183 254.759 247.818 243.687 247.662 242.544C247.454 241.4 247.558 240.412 247.87 240.205C248.131 240.049 249.119 238.437 250.003 236.67C250.94 234.902 251.876 233.291 252.084 233.135C252.553 232.875 252.084 235.63 251.2 237.969C249.951 241.608 249.483 243.375 249.743 243.635C249.899 243.791 251.356 242.96 252.917 241.764C254.529 240.516 255.986 239.633 256.09 239.789C256.246 239.945 255.674 241.972 254.894 244.259L253.385 248.521L254.321 256.163C255.622 266.403 255.622 266.039 253.749 269.054C252.292 271.341 252.188 271.861 252.657 273.161C253.229 274.72 253.073 274.668 258.795 273.628L260.512 273.316L260.408 283.869C260.356 292.653 260.46 294.941 261.188 297.072C262.229 299.983 263.321 301.49 264.57 301.49C266.391 301.49 273.674 293.069 279.761 284.025C283.142 278.982 283.403 278.411 282.882 277.007C282.31 275.292 279.657 271.341 278.46 270.354C277.992 269.938 277.628 269.002 277.628 268.17V266.663L280.229 268.482C281.634 269.47 283.038 270.302 283.246 270.302C283.507 270.302 284.131 270.769 284.651 271.341C286.732 273.628 286.784 272.693 285.119 259.749C283.819 249.249 282.622 244.467 280.801 241.712C279.189 239.321 274.871 235.89 271.541 234.383C270.293 233.811 269.304 233.135 269.304 232.875C269.304 232.563 270.449 232.355 271.905 232.355C275.027 232.355 275.287 231.524 272.79 229.652C265.246 223.882 254.686 217.801 252.292 217.801C251.772 217.801 250.472 217.541 249.379 217.229L247.454 216.709V210.939C247.454 206.157 247.558 205.273 248.183 205.481C248.599 205.637 252.136 208.132 255.986 210.991C259.888 213.902 263.217 216.241 263.425 216.241C263.686 216.241 263.738 213.278 263.686 209.692C263.478 202.518 264.102 200.283 265.09 204.805C265.402 206.261 265.662 208.08 265.662 208.86C265.662 209.692 265.871 210.523 266.131 210.835C266.391 211.095 266.755 212.239 266.911 213.382C267.067 214.526 267.327 216.449 267.535 217.697C267.9 220.296 268.836 220.504 269.668 218.217C271.645 212.655 272.738 210.004 273.05 210.004C273.518 210.004 273.83 211.095 274.507 215.202C276.483 226.482 275.859 224.974 283.767 238.437L291.154 251.017V261.725L294.796 265.675L297.917 262.972C299.634 261.465 301.039 260.061 301.039 259.801C301.039 259.541 301.403 259.386 301.819 259.49C302.287 259.593 303.484 261.725 304.628 264.584C308.946 275.136 315.709 289.223 318.258 292.913C323.201 300.035 326.842 302.218 328.455 298.839C330.224 295.149 332.981 275.552 333.605 262.193L333.917 254.811L331.68 252.42C330.484 251.069 327.518 248.677 325.177 247.118C321.224 244.519 318.206 241.608 318.206 240.309C318.206 240.049 321.276 240.672 325.073 241.816C332.669 243.999 332.773 244.051 332.773 243.167C332.773 242.492 326.686 231.628 321.484 222.999C309.05 202.466 305.461 198.672 295.576 195.553C291.154 194.201 287.044 193.37 284.651 193.37C283.663 193.37 282.83 193.162 282.83 192.902C282.83 192.694 284.443 191.758 286.42 190.875C288.397 189.991 290.166 189.055 290.322 188.743C290.478 188.483 289.801 187.756 288.813 187.132C287.773 186.508 286.992 185.936 287.096 185.832C287.2 185.78 292.455 185.884 298.749 186.04C306.709 186.3 310.507 186.56 311.027 187.028C311.495 187.392 314.357 191.394 317.426 196.021C320.495 200.595 323.149 204.234 323.253 204.078C323.409 203.922 323.305 201.998 322.992 199.763C322.68 197.528 322.16 193.266 321.848 190.251C321.536 187.236 321.068 183.181 320.755 181.206C320.495 179.231 320.339 177.567 320.443 177.463C320.703 177.203 322.056 180.062 324.709 186.352C327.675 193.526 327.831 193.733 328.715 193.006C329.391 192.434 333.449 191.758 341.929 190.771C344.53 190.511 356.288 190.251 368.097 190.251C379.854 190.251 389.479 190.095 389.479 189.939C389.479 189.783 388.802 188.743 388.022 187.704C384.744 183.545 380.062 176.112 380.27 175.488C380.739 174.345 383.548 174.137 386.461 174.968C390.103 176.06 395.617 179.751 400.247 184.377C402.328 186.404 404.149 187.912 404.305 187.652C404.617 187.132 399.675 179.751 395.877 175.072C387.137 164.312 374.392 156.255 360.085 152.512C350.773 150.069 335.686 149.238 324.865 150.537C304.212 153.032 279.033 161.193 255.726 172.837C248.807 176.32 247.454 176.788 247.454 175.696C247.454 175.28 253.073 170.914 258.223 167.379C260.044 166.132 261.501 164.832 261.501 164.572C261.501 164.26 260.668 163.428 259.68 162.753C258.639 162.077 258.015 161.297 258.223 161.089C258.431 160.881 263.321 159.062 269.044 157.087C289.281 150.017 294.536 148.094 294.952 147.678C295.16 147.47 292.767 145.131 289.593 142.48C284.339 138.114 283.871 137.542 283.871 135.931C283.871 134.943 284.079 134.111 284.287 134.111C284.651 134.111 293.755 138.841 298.385 141.389L300.258 142.48L305.2 139.621C307.906 138.01 311.703 135.827 313.628 134.787C315.605 133.695 317.166 132.604 317.166 132.292C317.166 132.032 314.565 130.161 311.443 128.185C308.27 126.262 305.721 124.547 305.721 124.391C305.721 124.027 307.281 121.116 307.489 121.116C307.593 121.116 310.871 122.883 314.721 125.014C318.622 127.146 321.9 128.913 322.004 128.913C322.16 128.913 324.189 130.005 326.53 131.304L330.744 133.695L332.825 132.344C333.917 131.564 334.854 130.784 334.854 130.576C334.854 129.017 326.426 122.311 321.848 120.232C315.501 117.321 304.784 113.994 298.541 113.007C297.345 112.799 296.356 112.487 296.356 112.279C296.356 110.72 302.963 111.551 312.952 114.358C317.062 115.502 320.86 116.698 321.432 117.009C322.472 117.581 324.917 115.97 333.813 108.9C335.686 107.445 340.472 103.702 344.478 100.635C348.484 97.5165 351.813 94.7095 351.918 94.3456C352.282 92.7862 342.605 89.0436 336.935 88.5757C335.062 88.4198 333.189 88.1599 332.773 88.004C331.316 87.5361 333.709 86.3925 337.507 85.7168C342.761 84.7811 351.345 85.8727 360.605 88.7317C362.79 89.4075 365.027 89.6154 368.097 89.5114C370.542 89.4594 372.623 89.3035 372.727 89.1475C373.872 88.004 365.496 82.9618 357.016 79.687C345.155 75.1646 338.6 74.073 323.929 74.125C313.628 74.125 311.651 74.2809 307.541 75.2686C297.969 77.6597 294.119 79.2192 288.553 82.9618C274.559 92.3184 260.564 114.67 249.067 146.067L248.026 148.926V140.349C248.026 132.552 248.131 131.564 249.171 129.589C254.633 119.193 254.79 118.777 253.437 117.789C252.813 117.321 253.957 115.71 260.408 108.173C264.674 103.234 268.056 98.868 267.952 98.5561C267.795 98.1923 266.651 97.4645 265.35 96.9447C264.05 96.4249 262.801 95.5932 262.489 95.0734C261.813 93.8258 262.489 92.3704 263.53 92.7862C264.362 93.0981 269.096 94.0857 269.824 94.0857C270.501 94.0857 276.639 83.5856 276.379 82.9098C276.275 82.5459 275.339 82.0781 274.402 81.8702C270.865 81.1425 270.761 81.0905 271.125 79.635C271.333 78.8553 271.541 78.1795 271.593 78.1275C271.645 78.0756 273.102 78.3355 274.767 78.6993C276.483 79.1152 279.137 79.583 280.645 79.739C283.194 80.0508 283.403 79.9989 283.923 78.8033C284.703 77.0879 284.287 76.1523 282.206 75.0607C279.137 73.5012 272.634 73.5532 266.703 75.1646C265.506 75.5285 265.454 75.4765 266.131 74.6968C266.963 73.6572 270.917 72.4616 275.131 71.9938L278.096 71.6819L283.559 60.454C286.576 54.3202 289.073 49.0701 289.073 48.8622C289.073 48.6543 288.761 48.3424 288.397 48.1865C287.512 47.8226 282.622 48.6543 281.27 49.382C279.189 50.4736 279.397 49.2781 281.634 47.3028C283.923 45.2755 288.241 43.5082 292.195 42.9364C293.495 42.7284 295.472 41.9487 296.564 41.221C298.489 39.9734 298.541 39.8175 297.709 39.1937C295.316 37.4784 286.108 37.6343 281.009 39.5576C273.674 42.2606 264.622 49.7979 260.46 56.6074C257.599 61.3377 254.217 70.1745 252.657 76.932C250.316 87.0683 248.547 97.6724 248.443 102.091L248.391 104.742L247.87 101.883C247.61 100.271 247.506 89.0956 247.61 76.6721L247.766 54.3202L249.223 49.6419C251.46 42.2606 254.373 37.2704 259.16 32.4362C265.61 25.9386 272.269 23.2355 281.79 23.1836C286.732 23.1316 288.813 23.5994 293.235 25.5747C298.958 28.1737 308.582 35.3991 308.166 36.8546C306.917 40.9611 305.2 48.0305 304.888 50.0578L304.576 52.5009L307.229 50.7335C311.443 47.8746 317.114 46.1072 326.27 44.7037C329.912 44.1319 335.79 44.0799 338.704 44.5998L340.732 44.9636L336.883 46.1072C332.877 47.3028 327.935 50.0578 324.813 52.8128C322.992 54.4762 318.206 60.0901 318.206 60.6619C318.206 60.8179 318.987 60.7659 319.923 60.6099C328.819 58.9465 343.594 59.3624 352.178 61.5456C372.467 66.6917 385.317 82.0781 388.178 104.742C388.386 106.197 388.646 107.861 388.802 108.485C389.218 110.2 387.658 110.356 378.762 109.42C370.074 108.484 363.831 108.692 347.86 110.512C340.316 111.343 338.495 111.863 340.628 112.539C342.657 113.163 361.49 121.584 363.727 122.883C387.97 136.762 391.195 139.049 396.242 146.535C407.115 162.753 411.537 181.986 407.999 197.528C407.271 200.543 406.386 203.818 405.918 204.857L405.138 206.781L400.456 205.793C383.912 202.414 362.27 201.998 349.681 204.805C344.218 206.001 340.576 207.093 340.576 207.404C340.576 207.612 341.201 207.976 341.981 208.184C347.131 209.432 364.611 217.229 370.334 220.764C375.484 223.934 380.635 229.392 383.08 234.175C390.259 248.21 391.559 267.547 386.305 282.673C384.744 287.143 381.831 292.549 379.438 295.512L378.137 297.02L376.213 293.173C370.75 282.361 363.467 271.757 357.016 265.363C352.854 261.257 349.056 257.826 348.64 257.826C348.588 257.826 348.38 260.945 348.172 264.74C347.496 277.371 345.415 289.587 342.345 298.787C340.524 304.245 339.016 307.104 335.686 311.523C330.692 318.072 325.438 322.543 318.779 325.869C310.975 329.768 305.461 331.015 295.316 331.067C288.033 331.119 287.616 331.067 282.674 329.352Z" fill="url(#paint1_linear_658_58)"/>
<defs>
<linearGradient id="paint0_linear_658_58" x1="96.0657" y1="1.89561e-06" x2="216.324" y2="356.06" gradientUnits="userSpaceOnUse">
<stop stop-color="#E368CD"/>
<stop offset="1" stop-color="#AF7BDE"/>
</linearGradient>
<linearGradient id="paint1_linear_658_58" x1="96.0657" y1="1.89561e-06" x2="216.324" y2="356.06" gradientUnits="userSpaceOnUse">
<stop stop-color="#E368CD"/>
<stop offset="1" stop-color="#AF7BDE"/>
</linearGradient>
</defs>
</svg>
